<svg width="95" height="78" viewBox="0 0 95 78" fill="none" xmlns="http://www.w3.org/2000/svg">
    <path d="M12.5047 19.1883L12.7379 19.087C12.5919 18.3616 12.6296 17.5983 12.8686 16.8689C13.4093 18.6969 14.6336 20.2568 16.2982 21.2227L25.2129 26.395L25.2127 26.3952L25.2203 26.399L43.4644 35.4607L43.5014 35.479C45.2478 36.3465 46.1641 36.8016 47.1537 36.8082C48.1434 36.8149 49.0657 36.3721 50.8238 35.5282L50.8611 35.5103L62.5809 29.8845L62.5811 29.8849L62.5908 29.8792L70.2258 25.3695L70.2258 25.3696L70.2297 25.3672L77.053 21.0097C77.1164 20.9693 77.1879 20.9531 77.2574 20.9586L77.379 20.9681L77.3834 20.9377L77.4274 21.0111L77.4376 21.0281L77.4524 21.0413C77.4761 21.0625 77.4972 21.0876 77.5147 21.1166C77.532 21.1452 77.5447 21.1762 77.5525 21.2084L77.5571 21.2277L77.5673 21.2447L86.2748 35.7787L86.2756 35.78L94.8043 49.655L94.8048 49.6557C94.8964 49.8027 94.888 49.9772 94.801 50.1546C94.7132 50.3336 94.5514 50.4997 94.3706 50.6043L94.3701 50.6046L71.6725 63.8862L71.6697 63.8879L48.5254 76.658C48.5142 76.6579 48.5045 76.6578 48.496 76.6576C48.4925 76.6549 48.4894 76.653 48.4868 76.652C48.4787 76.6501 48.4667 76.6483 48.4629 76.6479L48.4555 76.6476L48.4498 76.6476L48.4442 76.6479L48.442 76.648C48.4395 76.6482 48.4358 76.6486 48.4315 76.649C48.4155 76.6503 48.3768 76.6532 48.2967 76.6585L48.2966 76.6579L48.284 76.66C48.1922 76.6752 48.0981 76.6927 48.0027 76.7104C47.784 76.7512 47.5585 76.7932 47.3376 76.8115C47.0197 76.8378 46.7544 76.8097 46.5754 76.6823L46.5757 76.6818L46.5651 76.6757L36.7206 70.9858L36.7191 70.985L24.6484 64.2209L24.6475 64.2204L0.478553 50.4151L0.478527 50.4151C0.189018 50.2498 0.0593226 49.9039 0.168419 49.5914L6.13431 32.5036L10.323 21.8336L10.3232 21.8331L11.9429 17.6496C11.9444 17.7371 11.9502 17.8219 11.9601 17.9043C12.0196 18.4017 12.2263 18.7995 12.5047 19.1883Z" fill="#4C566A"/>
    <path d="M13.3173 15.6448L20.9133 11.7688C24.4623 10.072 27.8828 8.12591 31.1482 5.94558L38.1507 1.27025C38.5078 1.03181 38.8852 0.824216 39.2787 0.649797L39.6092 0.503221C40.3575 0.171518 41.1685 0 41.9889 0C43.0581 0 44.1062 0.291191 45.018 0.841397L76.3266 19.9943C76.6119 20.1688 76.7959 20.3164 76.9831 20.4952C77.3379 20.834 77.5188 21.3163 77.5188 21.8069V21.8069C77.5422 22.2869 77.3666 22.7556 77.0323 23.1055L75.8871 24.3043C74.8085 25.4334 73.6093 26.4445 72.3104 27.3201L70.1508 28.6373L63.8774 32.1835L59.3524 34.5139L52.9673 38.0294C52.5648 38.2509 52.2037 38.5385 51.8994 38.8797C50.2735 40.7025 49.3768 43.0461 49.3768 45.4728V75.1406C49.3768 75.9977 48.8681 76.943 48 77C46.8538 77.4193 45.4688 76.3491 45.4688 75.1445V58.3246L45.1622 48.858C45.0109 44.1865 44.9352 41.8508 43.7284 39.9792C42.5216 38.1075 40.4077 37.0475 36.1799 34.9274L27.6773 30.6637L18.9358 25.6989L13.589 22.1871C11.7195 20.9592 10.9981 18.6764 12.0493 16.72C12.3141 16.2272 12.6181 16.0016 13.3173 15.6448Z"/>
    <path d="M13.3173 15.6448L20.9133 11.7688C24.4623 10.072 27.8828 8.12591 31.1482 5.94558L38.1507 1.27025C38.5078 1.03181 38.8852 0.824216 39.2787 0.649797L39.6092 0.503221C40.3575 0.171518 41.1685 0 41.9889 0C43.0581 0 44.1062 0.291191 45.018 0.841397L76.3266 19.9943C76.6119 20.1688 76.7959 20.3164 76.9831 20.4952C77.3379 20.834 77.5188 21.3163 77.5188 21.8069V21.8069C77.5422 22.2869 77.3666 22.7556 77.0323 23.1055L75.8871 24.3043C74.8085 25.4334 73.6093 26.4445 72.3104 27.3201L70.1508 28.6373L63.8774 32.1835L59.3524 34.5139L52.9673 38.0294C52.5648 38.2509 52.2037 38.5385 51.8994 38.8797C50.2735 40.7025 49.3768 43.0461 49.3768 45.4728V75.1406C49.3768 75.9977 48.8681 76.943 48 77C46.8538 77.4193 45.4688 76.3491 45.4688 75.1445V58.3246L45.1622 48.858C45.0109 44.1865 44.9352 41.8508 43.7284 39.9792C42.5216 38.1075 40.4077 37.0475 36.1799 34.9274L27.6773 30.6637L18.9358 25.6989L13.589 22.1871C11.7195 20.9592 10.9981 18.6764 12.0493 16.72C12.3141 16.2272 12.6181 16.0016 13.3173 15.6448Z" fill="white"/>
    <path d="M42.2956 6.7989L42.2958 6.79888C43.6508 6.63799 45.1537 6.7773 46.5637 7.07413C47.7941 7.33315 49.0346 8.06251 50.1605 8.72452C50.3072 8.81078 50.452 8.8959 50.5945 8.97868L51.2134 9.43119C51.7728 9.87204 52.1122 10.1943 52.3693 10.5028C52.6268 10.8119 52.8051 11.111 53.0411 11.5141L53.0416 11.5149C53.2758 11.9086 53.4224 12.2462 53.4915 12.591C53.5601 12.9332 53.5541 13.2905 53.4722 13.7262C53.2085 14.5833 52.6579 15.3273 51.6445 15.9771L48.1271 17.8824L35.2383 10.3996L38.6012 8.44602C38.8309 8.32159 39.068 8.18377 39.3099 8.04322C39.3597 8.01428 39.4097 7.98522 39.4599 7.95614C39.7553 7.78493 40.058 7.61216 40.3684 7.45322C40.9899 7.13494 41.6342 6.87626 42.2956 6.7989ZM39.5392 10.5387L39.3352 10.6492L39.5354 10.7654L47.6693 15.4877L47.7324 15.5243L47.7966 15.4895L49.2086 14.7246C50.3556 14.1033 50.9234 13.372 50.7655 12.5226C50.6883 12.1054 50.4439 11.693 50.05 11.285C49.6559 10.8767 49.1059 10.4663 48.4045 10.0527L48.4038 10.0522C46.9645 9.21665 45.5631 8.73573 44.2003 8.61526C43.0882 8.51694 42.4408 8.90304 41.6677 9.36411C41.4741 9.47958 41.2726 9.59975 41.0539 9.71819L39.5392 10.5387Z" fill="#4C566A" stroke="#4C566A" stroke-width="0.260026"/>
    </svg>