<?xml version="1.0" standalone="no"?>
<!DOCTYPE svg PUBLIC "-//W3C//DTD SVG 20010904//EN"
 "http://www.w3.org/TR/2001/REC-SVG-20010904/DTD/svg10.dtd">
<svg version="1.0" xmlns="http://www.w3.org/2000/svg"
 width="95.000000pt" height="95.000000pt" viewBox="0 0 95.000000 95.000000"
 preserveAspectRatio="xMidYMid meet">
<metadata>
Created by potrace 1.11, written by Peter Selinger 2001-2013
</metadata>
<g transform="translate(0.000000,95.000000) scale(0.100000,-0.100000)"
fill="#000000" stroke="none">
<path d="M376 774 l-28 -16 65 -39 c58 -35 69 -38 91 -28 46 21 44 59 -5 84
-36 19 -86 18 -123 -1z m112 -20 c18 -13 21 -19 11 -30 -15 -19 -21 -18 -64 7
-27 16 -33 24 -23 30 20 13 51 10 76 -7z"/>
<path d="M90 611 c-42 -109 -92 -252 -89 -255 13 -9 451 -256 456 -256 9 0 -8
332 -19 355 -5 12 -39 36 -76 54 -98 48 -203 111 -228 136 l-22 22 -22 -56z"/>
<path d="M748 610 c-14 -14 -72 -50 -128 -80 -131 -70 -130 -68 -130 -276 0
-142 2 -156 17 -150 15 6 433 244 442 252 4 3 -147 254 -163 269 -8 8 -19 3
-38 -15z"/>
</g>
</svg>
