<svg width="57" height="93" viewBox="0 0 57 93" fill="none" xmlns="http://www.w3.org/2000/svg">
<path d="M57 5.5293L55.548 4.1079C54.3954 2.98104 52.8328 2.01395 50.8576 1.20791C48.8833 0.402706 47.0728 0 45.4277 0H5.92477C4.27923 0 2.88013 0.563535 1.72812 1.69145C0.575896 2.81873 0 4.18831 0 5.79977V87.001C0 88.6129 0.575896 89.9825 1.72812 91.11C2.88034 92.2368 4.27923 92.801 5.92498 92.801H57V85.0679H7.89976V7.73352H39.5001V32.8674C39.5001 34.4787 40.0756 35.8478 41.2278 36.9757C42.3804 38.103 43.7787 38.6674 45.4253 38.6674H57V30.9337H47.4012V8.21622C48.5938 8.61893 49.4371 9.06248 49.9313 9.54517L57 16.4648V5.5293Z" fill="#5E81AC"/>
</svg>
