<svg width="62" height="94" viewBox="0 0 62 94" fill="none" xmlns="http://www.w3.org/2000/svg">
<path fill-rule="evenodd" clip-rule="evenodd" d="M62 33.4902C56.1415 21.6686 53.2226 14.7639 49.3678 5.64536C48.6158 3.86643 47.8281 2.00325 46.9761 0.00286293V0C46.0538 2.25944 45.2122 4.34709 44.4107 6.3354C41.5749 13.3699 39.2403 19.161 35.6092 26.917C38.4676 29.9434 41.9703 33.4503 47.6585 37.4306C41.5408 34.9129 37.3748 32.4033 34.2539 29.7802C28.2937 42.2146 18.9453 59.9097 0 93.9493C14.8891 85.3549 26.4374 80.0628 37.1935 78.0394C36.7306 76.0543 36.4729 73.8974 36.492 71.6545L36.5063 71.1916C36.7401 61.6524 41.7078 54.3083 47.5869 54.8046C53.466 55.3008 58.0376 63.4562 57.799 72.9954C57.756 74.7897 57.5556 76.5124 57.2025 78.111C58.7815 78.4206 60.378 78.8005 62 79.2508V33.4902Z" fill="#5E81AC"/>
</svg>
