<svg width="52" height="92" viewBox="0 0 52 92" fill="none" xmlns="http://www.w3.org/2000/svg">
<path d="M51.8802 7.51791C50.032 4.32089 46.0882 -0.216531 38.6555 0.00802363C27.2332 0.353108 26.3174 10.5638 26.3174 10.5638C26.3174 10.5638 26.3357 29.9751 26.3357 31.6671C26.3357 32.7732 26.0894 33.0601 25.5625 33.6738C25.2834 33.9988 24.9256 34.4155 24.484 35.0942C24.0563 35.7516 23.4081 36.6032 22.6641 37.5809C21.1898 39.518 19.339 41.9499 18.0799 44.346C17.0856 46.2382 16.441 47.9207 15.5639 50.2099C15.289 50.9273 14.9912 51.7044 14.6528 52.5662C14.0794 54.0259 13.4138 55.2641 12.8241 56.3609C11.955 57.9778 11.2509 59.2875 11.2509 60.5468C11.2509 61.6001 11.5289 62.354 11.8078 62.8904C12.5765 61.9347 13.4837 61.2614 14.8922 61.2614C17.0247 61.2614 22.1611 69.3194 26.3357 75.9094C26.618 76.3551 26.8977 76.7904 27.1725 77.2133C27.818 77.3355 30.0127 77.5591 30.0127 74.9486C30.0127 71.8881 18.369 63.752 18.369 63.752C18.369 63.752 17.7677 58.1044 19.1193 53.945C20.4709 49.7855 23.0141 45.8191 23.0141 45.8191C23.0141 45.8191 23.9382 41.8245 25.5074 38.4481C27.0765 35.0716 28.5536 34.1963 28.5536 34.1963L28.7061 29.273C28.2908 28.6413 27.9662 28.1317 27.7944 27.8617C27.7682 27.8206 27.7456 27.7851 27.7267 27.7556C27.1694 26.8824 27.177 25.3804 27.7267 24.6578C27.9095 24.4176 28.6343 23.819 29.5509 23.1147C28.5187 22.1747 27.8212 20.3809 27.8212 18.3225C27.8212 15.2902 29.335 12.832 31.2024 12.832C33.0698 12.832 34.5836 15.2902 34.5836 18.3225C34.5836 18.7875 34.548 19.239 34.481 19.6702C34.5103 19.6558 34.5364 19.6439 34.559 19.6346C35.3476 19.3138 37.2878 19.3921 38.3887 19.6957C38.2959 19.2568 38.2466 18.7967 38.2466 18.3225C38.2466 15.2902 40.265 12.832 42.7548 12.832C45.2447 12.832 47.2631 15.2902 47.2631 18.3225C47.2631 20.1442 46.5346 21.7587 45.4131 22.7575C46.501 23.2481 47.3571 23.6318 47.6278 23.7394C48.5118 24.0907 48.2066 26.5592 47.3869 27.7556C47.3039 27.8767 47.1672 28.0461 46.9866 28.2534C47.3736 29.118 49.6136 34.1522 51.6624 39.4047C51.7352 39.5913 51.8078 39.7743 51.8802 39.9541V7.51791Z" fill="#4C566A"/>
<path d="M51.8802 88.4351C51.2658 86.0459 51.4692 82.6104 51.8802 78.768V88.4351Z" fill="#4C566A"/>
<path fill-rule="evenodd" clip-rule="evenodd" d="M44.2084 22.5792C43.6565 22.3288 43.0691 22.0622 42.4874 21.7993C42.6201 21.8274 42.7565 21.8421 42.8957 21.8421C44.2184 21.8421 45.2907 20.5184 45.2907 18.8856C45.2907 17.2528 44.2184 15.9292 42.8957 15.9292C41.573 15.9292 40.5007 17.2528 40.5007 18.8856C40.5007 19.9741 40.9772 20.9252 41.6868 21.4384C40.192 20.7664 38.8684 20.1836 38.4675 20.0519C37.469 19.7239 35.475 19.6237 34.6901 19.9448C33.9052 20.266 28.7606 24.0262 28.2418 24.7119C27.723 25.3977 27.7158 26.8231 28.2418 27.6517C28.7678 28.4804 32.3833 32.0307 33.7927 32.5914C35.202 33.1521 36.6315 33.3319 38.4675 32.7556C40.3035 32.1792 46.0234 28.7871 46.797 27.6517C47.5706 26.5164 47.8587 24.1737 47.0244 23.8403C46.7111 23.7151 45.5675 23.1961 44.2084 22.5792ZM35.5212 29.3417C32.0662 29.7747 28.7008 27.2463 28.784 27.1414C28.8012 27.1197 28.9345 27.1906 29.1677 27.3144C30.0635 27.7902 32.433 29.0488 35.3514 28.8521C37.8442 28.6842 41.3196 26.524 43.3823 25.2418C44.3629 24.6323 45.0243 24.2212 45.109 24.317C45.4802 24.7366 39.4274 28.8521 35.5212 29.3417ZM43.988 17.4418C44.3713 18.1356 44.2719 18.5719 43.988 18.6639C43.704 18.7559 43.1803 17.9112 43.1803 17.9112C43.1803 17.9112 42.6193 17.2166 42.8164 16.921C43.035 16.5932 43.6046 16.748 43.988 17.4418Z" fill="#4C566A"/>
<path d="M31.7765 84.12C31.678 83.8944 31.2746 83.2919 30.6672 82.4039C31.6906 82.7873 35.5387 83.8289 43.313 81.6866C46.7253 80.7463 49.3488 78.8305 51.3273 76.6866C51.2686 77.2337 51.2024 77.8263 51.1275 78.4714C50.6936 82.2102 50.4206 85.6211 50.7843 88.2135C47.6495 87.7064 44.0639 87.2739 40.9522 87.2739C37.5676 87.2739 34.0904 87.7856 31.2894 88.3483C31.9851 87.1229 32.3224 85.3712 31.7765 84.12Z" fill="#4C566A"/>
<path d="M20.2933 91.1244C22.5084 91.9021 23.2402 92.159 24.7375 91.906C26.9192 91.5374 28.9406 89.5804 29.9248 88.4989C30.9091 87.4175 31.5488 85.2386 30.9041 83.7788C30.7897 83.5198 30.246 82.7367 29.4452 81.5833C28.4699 80.1786 27.1134 78.2248 25.6865 75.9994C21.683 69.7555 16.7572 62.1207 14.7122 62.1207C12.6592 62.1207 11.7168 63.5943 10.6633 65.2415C9.98622 66.3002 9.26329 67.4305 8.1702 68.2877C6.85635 69.318 5.42731 69.5628 4.15242 69.7813C2.71617 70.0274 1.47556 70.24 0.815658 71.5043C0.565013 71.9845 0.627068 73.0513 0.712841 74.5258C0.781744 75.7104 0.865951 77.158 0.815658 78.7761C0.756329 80.6847 0.590977 82.0592 0.47672 83.009C0.373547 83.8666 0.312035 84.3779 0.407867 84.6235C0.815658 85.6687 2.13593 86.3262 4.29399 87.0325C5.29987 87.3617 6.85333 87.6466 8.58807 87.9647C10.5751 88.3291 12.8 88.7372 14.7122 89.3054C17.3166 90.0793 19.0417 90.685 20.2933 91.1244Z" fill="#4C566A"/>
<path d="M33.1748 19.0264C33.1748 20.5815 32.2917 21.8421 31.2024 21.8421C30.1131 21.8421 29.23 20.5815 29.23 19.0264C29.23 17.4714 30.1131 16.2108 31.2024 16.2108C32.2917 16.2108 33.1748 17.4714 33.1748 19.0264Z" fill="#4C566A"/>
</svg>
