<svg width="70" height="93" viewBox="0 0 70 93" fill="none" xmlns="http://www.w3.org/2000/svg">
<path d="M70 33.6592L53.6925 88.2744C53.4783 88.9496 53.5454 89.5864 53.8941 90.1829C54.2429 90.7804 54.7654 91.1828 55.4641 91.3902L60.4551 92.715C61.0991 92.924 61.7298 92.8585 62.3471 92.5208C62.9646 92.1816 63.3807 91.6766 63.5947 91.0027L70 69.5512V33.6592Z" fill="#5E81AC"/>
<path d="M46.8526 6.95178C46.8526 6.27679 46.5839 5.67901 46.0473 5.16008L42.0218 1.26509C41.4852 0.745881 40.8677 0.485596 40.1701 0.485596C39.4726 0.485596 38.8548 0.746154 38.3185 1.26509L0.805281 37.5641C0.267863 38.0833 0 38.6809 0 39.3558C0 40.0308 0.268709 40.6283 0.805281 41.1473L38.3182 77.4463C38.8545 77.9663 39.4712 78.225 40.1699 78.225C40.8686 78.225 41.4852 77.9655 42.0215 77.4463L46.0471 73.5535C46.5836 73.0346 46.8523 72.4368 46.8523 71.761C46.8523 71.0868 46.5836 70.4893 46.0471 69.9704L14.4102 39.3558L46.0473 8.74349C46.5848 8.22456 46.8526 7.62678 46.8526 6.95178Z" fill="#5E81AC"/>
</svg>
