<svg width="70" height="93" viewBox="0 0 70 93" fill="none" xmlns="http://www.w3.org/2000/svg">
<path d="M70 81.9281H54.1045C53.3384 81.9281 52.7086 82.1865 52.216 82.7068C51.724 83.2253 51.4784 83.8876 51.4784 84.6954V90.2326C51.4784 91.0392 51.724 91.7031 52.216 92.2213C52.7086 92.74 53.3384 93 54.1045 93H70V81.9281Z" fill="#5E81AC"/>
<path d="M6.81306 0C7.5245 0 8.15427 0.288766 8.70151 0.865391L46.9615 41.1792C47.5088 41.7555 47.782 42.4191 47.782 43.1684C47.782 43.9181 47.5088 44.5829 46.9615 45.1592L8.70123 85.473C8.15427 86.0496 7.52421 86.3377 6.81277 86.3377C6.10133 86.3377 5.4727 86.0505 4.92546 85.473L0.820143 81.1481C0.273189 80.5718 0 79.9091 0 79.1583C0 78.4095 0.273189 77.7459 0.820143 77.1693L33.0875 43.1699L0.820143 9.17086C0.273189 8.59423 0 7.93185 0 7.181C0 6.43075 0.273189 5.76807 0.820143 5.19175L4.92575 0.865391C5.4727 0.288766 6.10161 0 6.81306 0Z" fill="#5E81AC"/>
</svg>
